<?xml version="1.0" standalone="no"?>
<!DOCTYPE svg PUBLIC "-//W3C//DTD SVG 20010904//EN"
 "http://www.w3.org/TR/2001/REC-SVG-20010904/DTD/svg10.dtd">
<svg version="1.0" xmlns="http://www.w3.org/2000/svg"
 width="505.000000pt" height="505.000000pt" viewBox="0 0 505.000000 505.000000"
 preserveAspectRatio="xMidYMid meet">
<metadata>
Created by potrace 1.14, written by Peter Selinger 2001-2017
</metadata>
<g transform="translate(0.000000,505.000000) scale(0.100000,-0.100000)"
fill="#000000" stroke="none">
<path d="M2457 4635 c-1 -2 -40 -5 -87 -8 -626 -44 -1229 -427 -1562 -990
-207 -352 -307 -724 -302 -1133 7 -617 280 -1203 739 -1591 127 -108 113 -97
229 -172 214 -138 528 -258 751 -287 28 -3 72 -10 100 -14 27 -4 123 -8 212
-7 615 1 1189 293 1573 799 247 325 385 675 430 1088 9 75 6 422 -3 470 -3 14
-8 45 -12 70 -4 25 -9 59 -11 75 -23 142 -114 407 -197 570 -195 385 -515 713
-882 905 -126 67 -345 149 -437 165 -17 3 -34 8 -38 10 -8 5 -51 13 -104 20
-21 3 -42 7 -45 9 -14 9 -345 28 -354 21z"/>
</g>
</svg>
